<svg xmlns="http://www.w3.org/2000/svg" enable-background="new 0 0 960 960" viewBox="0 0 960 960" id="dragonfly">
  <g id="stroke" display="none">
    <path d="M532.8 448.6c30.3 16.3 60.3 33.4 89.9 51.1 28.9 17.3 57.5 35.1 85.9 53.2 28.7 18.3 57.2 36.9 85.7 55.6 7.3 4.8 14.5 9.5 21.8 14.3 6.6 4.3 13.3 8.4 19.6 13.2 11.1 8.6 22 19 29.5 30.9 3.7 5.9 6.6 12.1 8.5 18.8 1.7 6.2 2.3 11.9 1.5 18.4 0 .3-.1.7-.1 1 .1-.6 0 .2 0 .3-.1.8-.3 1.6-.5 2.4-.3 1.6-.8 3.2-1.3 4.7-1 3-2 5.1-3.6 8-3.4 5.8-7.8 10.6-13.1 14.9-22.1 17.9-53.3 20.7-80.1 14.6-29.6-6.7-55.6-23.5-78.7-42.6-23.8-19.6-46.3-41-67.4-63.5-21-22.3-40.6-45.9-58.4-70.8-18-25-34.3-51.3-48.6-78.6-3.5-6.7-6.9-13.4-10.1-20.2-1.1-2.2-4.2-2.8-6.2-1.6-2.2 1.3-2.7 4-1.6 6.2 13.6 28.4 29.3 55.8 46.9 81.9 17.6 26.1 37 51 57.9 74.5 20.9 23.5 43.3 45.6 66.9 66.3 23.8 20.9 49.2 40.5 79.2 51.7 28.2 10.5 60.4 12.4 88.3-.1 13.4-6 25.9-15.7 33.2-28.6 6.8-12 8.3-25.9 5.1-39.2-3.4-14.5-11.7-27.2-21.7-38.1-5.2-5.7-10.9-11-17-15.9-6.1-5-12.7-9.2-19.3-13.6-29.2-19.1-58.4-38.3-87.7-57.2-28.9-18.6-57.9-37-87.2-54.9-29.6-18.1-59.6-35.6-90-52.5-7.6-4.2-15.1-8.3-22.7-12.4-2.1-1.2-4.9-.5-6.2 1.6C530 444.5 530.7 447.5 532.8 448.6L532.8 448.6zM477.2 387.1c-17.7-29.2-36-58-55-86.4-19.1-28.7-38.7-57-58.9-84.9-20.1-27.9-40.7-55.3-61.8-82.5-8.7-11.2-17.6-22.4-28.1-32-10.1-9.2-21.8-17.3-35.1-20.8-12.9-3.4-26.5-2.1-38.5 3.5-11.1 5.1-20.3 14.1-26.6 24.5-15.6 26.2-11.4 58.9-.5 86 11 27.2 27.9 52.1 46.7 74.5 17.8 21.3 38.1 40.4 59.8 57.7 22.2 17.7 45.8 33.7 70.1 48.3 24.3 14.7 49.4 28.2 74.6 41.1 6 3.1 12.1 6.1 18.2 9.2 2.2 1.1 4.9.6 6.2-1.6 1.2-2 .6-5.1-1.6-6.2-24.9-12.5-49.6-25.3-73.7-39.1-24.2-13.8-47.8-28.7-70.3-45.1-21.7-15.9-42.6-33.6-61.3-53.3-18.8-19.8-35.1-41.2-48.6-65-14.4-25.4-26.2-56.4-18.5-85.8 1.6-6 3.4-10.5 6.5-15.8.7-1.2 1.5-2.5 2.3-3.6.4-.6.8-1.1 1.2-1.7.2-.3.4-.6.7-.9-.4.6.4-.4.4-.5 1.8-2.2 3.7-4.3 5.8-6.2 2.4-2.2 3.7-3.3 6.4-5 2.4-1.5 4.8-2.9 7.4-4 1.3-.6-.4.2.4-.2.3-.1.7-.3 1-.4.6-.2 1.3-.5 1.9-.7 1.4-.5 2.9-.9 4.4-1.3 1.4-.3 2.9-.6 4.3-.9.1 0 .9-.1.2 0 .4-.1.8-.1 1.2-.1.9-.1 1.7-.2 2.6-.2 3.2-.2 6.4-.1 9.5.3-.7-.1.4.1.5.1.4.1.8.1 1.2.2.7.1 1.4.3 2.2.4 1.7.4 3.3.8 5 1.4 5.7 1.9 11.2 4.8 16.4 8.4 10.8 7.3 20.3 17.4 28.8 27.6 10 12 19.3 24.5 28.7 36.9 10.2 13.4 20.2 26.8 30.1 40.4 20 27.3 39.4 54.9 58.4 82.8 18.9 27.8 37.2 56 54.9 84.6 4.3 6.9 8.6 13.9 12.8 20.9C472.4 396.5 480.2 392 477.2 387.1L477.2 387.1z"></path>
    <path d="M530.9,385.8c-5.6-5.2-12.4-9.1-19.9-11c-6.4-1.7-13.5-2-19.9-0.1c-7.5,2.3-14.2,7.5-19.9,12.7
				c-6.3,5.8-11.9,12.2-17.7,18.4c-12.7,13.6-25.5,27.3-38.2,40.9c-6.1,6.6-12.4,13.1-18.4,19.8c-5.6,6.3-11,12.9-14.7,20.5
				c-3.7,7.6-5.9,16.3-5,24.8c0.5,4.4,1.7,8.6,3.8,12.6c1.9,3.6,4.5,6.8,7.3,9.7c2.7,2.8,5.7,5.4,8.7,8c3.4,2.9,6.8,5.6,11,7.2
				c8.4,3.3,18,0.4,25.9-3.1c14.8-6.7,26.2-18.9,37.5-30.2c13.2-13.3,26.5-26.6,39.7-39.9c6.1-6.1,12.2-12.1,18.1-18.3
				c5.4-5.8,10.7-12.1,14.4-19.2c3.6-6.8,6.1-14.4,5.1-22.2c-1-7.8-4.5-15-9.3-21.3C536.8,391.9,534,388.7,530.9,385.8
				c-1.7-1.6-4.7-1.8-6.4,0c-1.6,1.8-1.8,4.6,0,6.4c1.5,1.4,2.9,2.8,4.2,4.2c0.6,0.7,1.2,1.4,1.8,2.1c0.3,0.4,0.6,0.8,0.9,1.2
				c0.1,0.2,0.3,0.3,0.4,0.5c-0.3-0.4-0.1-0.2,0.1,0.1c2.2,2.9,4,6,5.6,9.3c0.1,0.2,0.3,0.8,0,0c0.1,0.2,0.1,0.4,0.2,0.5
				c0.1,0.4,0.3,0.7,0.4,1.1c0.3,0.8,0.6,1.6,0.8,2.5c0.2,0.8,0.4,1.5,0.6,2.3c0.1,0.4,0.1,0.8,0.2,1.3c0.1,0.5,0-0.3,0-0.3
				c0,0.2,0.1,0.5,0.1,0.7c0.2,1.6,0.2,3.2,0,4.8c0,0.4-0.2,1.3,0,0.4c-0.1,0.4-0.1,0.7-0.2,1.1c-0.2,0.8-0.4,1.7-0.6,2.5
				c-0.2,0.8-0.5,1.7-0.8,2.5c-0.2,0.4-0.3,0.9-0.5,1.3c0,0-0.3,0.7-0.1,0.2c0.2-0.4-0.1,0.3-0.2,0.4c-0.7,1.7-1.6,3.3-2.5,4.9
				c-0.9,1.7-2,3.3-3.1,4.8c-0.5,0.7-1,1.3-1.4,2c-0.2,0.2-0.3,0.4-0.5,0.7c0,0-0.4,0.6-0.2,0.2c0.3-0.4-0.1,0.2-0.2,0.2
				c-0.2,0.2-0.3,0.4-0.5,0.6c-4.8,6-10.3,11.4-15.8,16.9c-12.7,12.7-25.3,25.4-38,38.1c-6,6.1-12.1,12.2-18.2,18.2
				c-2.7,2.6-5.4,5.2-8.2,7.7c-1.4,1.2-2.8,2.5-4.3,3.6c-0.4,0.3-0.8,0.6-1.1,0.9c-0.2,0.1-0.3,0.3-0.5,0.4c0.1-0.1,0.5-0.4,0.1-0.1
				c-0.8,0.6-1.5,1.2-2.3,1.7c-3,2.1-6.2,4.1-9.5,5.7c-0.8,0.4-1.6,0.8-2.4,1.1c-0.1,0.1-0.8,0.3-0.1,0c-0.2,0.1-0.4,0.2-0.6,0.2
				c-0.4,0.2-0.9,0.4-1.3,0.5c-1.8,0.7-3.6,1.3-5.5,1.7c-0.9,0.2-1.9,0.4-2.9,0.6c0.8-0.1-0.6,0-0.8,0.1c-0.5,0-1,0.1-1.6,0.1
				c-0.5,0-1,0-1.5,0c-0.2,0-0.4,0-0.7-0.1c0,0-0.7-0.1-0.3,0c0.5,0.1-0.4-0.1-0.5-0.1c-0.2,0-0.4-0.1-0.6-0.1
				c-0.6-0.1-1.1-0.3-1.7-0.5c-0.8-0.3,0.3,0.2-0.5-0.2c-0.4-0.2-0.7-0.4-1.1-0.6c-0.9-0.5-1.8-1.1-2.6-1.7
				c-0.2-0.1-0.3-0.2-0.5-0.4c0,0-0.6-0.4-0.2-0.2c0.4,0.3-0.2-0.1-0.2-0.2c-0.2-0.2-0.4-0.4-0.7-0.5c-0.8-0.6-1.5-1.3-2.2-1.9
				c-2.8-2.4-5.6-4.9-8.2-7.6c-0.6-0.6-1.2-1.3-1.8-2c-0.3-0.3-0.5-0.6-0.8-0.9c-0.1-0.2-0.3-0.3-0.4-0.5c-0.5-0.6,0.1,0.2-0.2-0.2
				c-1.1-1.5-2.1-3-2.9-4.6c-0.2-0.4-0.4-0.7-0.5-1.1c-0.1-0.1-0.3-0.8-0.1-0.1c-0.1-0.2-0.2-0.4-0.2-0.6c-0.4-0.9-0.7-1.9-0.9-2.8
				c-0.2-0.9-0.4-1.8-0.6-2.7c0-0.3-0.2-1.2-0.1-0.5c-0.1-0.6-0.1-1.1-0.2-1.7c-0.1-1.9-0.1-3.8,0.1-5.7c0-0.2,0-0.4,0.1-0.6
				c0,0,0.1-0.7,0-0.2c-0.1,0.5,0.1-0.3,0.1-0.5c0-0.2,0.1-0.4,0.1-0.6c0.2-1,0.4-2,0.6-2.9c0.5-1.9,1.1-3.7,1.8-5.5
				c0.1-0.2,0.2-0.4,0.2-0.6c0,0.1-0.2,0.6,0,0.1c0.2-0.5,0.4-0.9,0.6-1.4c0.4-0.9,0.9-1.8,1.4-2.7c0.9-1.7,2-3.4,3-5
				c0.5-0.8,1.1-1.6,1.6-2.3c0.3-0.4,0.5-0.7,0.8-1.1c0.2-0.2,0.3-0.5,0.5-0.7c0.2-0.2,0.4-0.5,0.1-0.1c5-6.4,10.7-12.3,16.3-18.2
				c12.2-13.1,24.5-26.2,36.7-39.3c6.1-6.5,12.2-13.1,18.3-19.6c2.6-2.8,5.2-5.5,8-8.2c1.4-1.3,2.8-2.6,4.2-3.8
				c0.3-0.3,0.6-0.5,1-0.8c0.2-0.2,0.4-0.3,0.7-0.5c0,0,0.6-0.4,0.2-0.2c-0.4,0.3,0.2-0.1,0.2-0.2c0.2-0.1,0.3-0.2,0.5-0.4
				c0.4-0.3,0.9-0.7,1.4-1c1.5-1.1,3.1-2.1,4.8-2.9c0.8-0.4,1.6-0.8,2.4-1.2c0.1-0.1,0.3-0.2,0.4-0.2c0,0-0.9,0.3-0.4,0.2
				c0.4-0.1,0.7-0.3,1.1-0.4c1.3-0.4,2.6-0.7,3.9-1c0.2,0,0.3,0,0.5-0.1c0.5-0.1-0.4,0.1-0.4,0.1c0.1-0.1,0.9-0.1,1.1-0.1
				c0.7-0.1,1.5-0.1,2.2-0.1c1.5,0,3,0.1,4.5,0.2c0.9,0.1-0.7-0.1,0.2,0c0.4,0.1,0.8,0.1,1.2,0.2c0.8,0.1,1.6,0.3,2.4,0.5
				c1.6,0.4,3.1,0.9,4.6,1.5c0.3,0.1,0.7,0.3,1,0.4c-0.9-0.4,0.2,0.1,0.5,0.2c0.8,0.4,1.6,0.8,2.4,1.2c1.5,0.8,2.9,1.7,4.2,2.6
				c0.4,0.3,0.7,0.5,1.1,0.8c-0.6-0.5,0.1,0.1,0.3,0.3c0.7,0.6,1.4,1.2,2.1,1.8c1.7,1.6,4.7,1.8,6.4,0
				C532.5,390.4,532.7,387.5,530.9,385.8z"></path>
    <path d="M260.9 299.2c-16.9-12.5-33.8-25-51.5-36.3-8.8-5.6-17.8-11-27.1-15.8-8.9-4.6-18-9-27.5-12.3-16.6-5.7-36.6-8.5-52.4.9-15.7 9.3-22.5 28.6-20.3 46.2 2.5 20.1 14.6 37.1 28.1 51.5 14 15 30.4 27.7 48.3 37.7 18.7 10.4 38.9 18 58.9 25.4 19.6 7.2 39.5 13.3 59.6 18.5 20.9 5.4 41.9 10.1 63 14.8 21.7 4.9 43.4 9.7 65 15.2 5.3 1.3 10.5 2.7 15.8 4.1 2.3.6 4.9-.8 5.5-3.1.6-2.3-.8-4.9-3.1-5.5-21-5.7-42.1-10.6-63.3-15.4-20.7-4.7-41.5-9.2-62.1-14.2-19.9-4.8-39.8-10.1-59.3-16.5-9.7-3.2-19.3-6.8-28.9-10.4-9.5-3.6-18.9-7.3-28.1-11.5-18.2-8.3-35.5-18.5-50.6-31.7-7.4-6.5-14.4-13.5-20.7-21-5.9-7-11.2-14.8-14.9-23.3-3.5-8-5.1-16-4.5-24.6.2-3.6 1-7.4 2.4-11.3.7-1.9 1.1-3 2.2-4.9.5-.8.9-1.7 1.5-2.5.3-.4.5-.8.8-1.2.2-.3.4-.5.6-.8.1-.1.4-.6.2-.2 2.5-3.3 5.3-5.6 8.6-7.6 3.4-2 6.5-3.2 10.7-4.1 7.5-1.6 16.2-.8 24 .9 8.7 2 16.9 5.2 24.7 8.8 9.3 4.3 18.4 9.2 27.2 14.4 17.6 10.4 34.4 22.3 50.8 34.4 4 3 8 5.9 12 8.9 2 1.4 5 .3 6.2-1.6C263.8 303 262.9 300.6 260.9 299.2L260.9 299.2zM615.4 643.3c5.1 5.8 9.9 11.7 14.7 17.8 1.4 1.8 2.8 3.5 4.2 5.3.4.5.8 1 1.1 1.4.1.2 1.2 1.5.7.9.8 1 1.5 2 2.3 3 3 4 6.1 8 9 12.1 12.2 16.7 24 33.8 34 52 2.2 4 4.3 8 6.2 12.1.4.9.8 1.7 1.2 2.6.2.5.4 1 .6 1.4.1.3.7 1.7.3.7.7 1.8 1.5 3.6 2.1 5.5 3.3 9.4 4.7 18.9 4.3 28.8-.1 1.3-.1 2.5-.3 3.8-.1.6-.1 1.1-.2 1.7.1-.9-.2 1-.2 1.3-.4 2.2-.9 4.4-1.5 6.5-.3 1-.6 2-1 3-.2.5-.4 1-.6 1.5-.1.2-.3.8 0-.1-.1.3-.2.5-.4.8-.8 1.8-1.7 3.5-2.7 5.2-.5.8-1 1.5-1.5 2.2-.2.3-.5.7-.7 1-.4.5.7-.8.1-.1-.2.2-.3.4-.5.6-1.1 1.3-2.2 2.5-3.5 3.7-.5.5-1.1 1-1.6 1.5-.2.1-1.2 1-.6.5.6-.5-.4.3-.6.4-1.2.9-2.5 1.7-3.8 2.4-.5.3-1.1.6-1.7.8-.1.1-.3.1-.4.2-.6.3.4-.2.5-.2-.3.2-.7.3-1 .4-1.1.4-2.3.7-3.4 1-.3.1-.6.1-.8.2-.7.2 1.3-.1.3 0-.5 0-1.1.1-1.6.1-1.2 0-2.5 0-3.7-.1-1.2-.1-2.5-.2-3.7-.3-.7-.1-.7-.4.2 0-.2-.1-.6-.1-.8-.1-.6-.1-1.2-.2-1.9-.3-2.4-.5-4.8-1.2-7.1-2-.3-.1-.5-.2-.8-.3-.2-.1-1.3-.6-.5-.2.8.4-.3-.1-.5-.2-.3-.1-.6-.3-.9-.4-1.2-.6-2.4-1.2-3.5-1.8-2.5-1.4-4.8-3-7.1-4.7.7.6.3.3-.1-.1-.3-.2-.5-.4-.8-.7-.6-.5-1.2-1-1.8-1.6-1.3-1.1-2.5-2.3-3.7-3.4-2.6-2.5-5-5.1-7.3-7.8-1.3-1.5-2.6-3-3.8-4.6-.3-.4-.6-.7-.9-1.1-.2-.2-1-1.3-.4-.5-.7-.9-1.4-1.9-2.1-2.8-2.8-3.7-5.4-7.6-8-11.4-6.3-9.5-12.2-19.4-17.8-29.3-14.1-24.8-27-50.3-38.1-76.6-10.8-25.5-20.1-51.6-29.2-77.8-9.2-26.6-18.3-53.2-28.4-79.4-2.6-6.7-5.2-13.3-7.9-20-.9-2.2-3-3.8-5.5-3.1-2.1.6-4.1 3.3-3.1 5.5 11 26.9 20.7 54.4 30.3 81.9 9.3 26.7 18.5 53.5 28.9 79.9 10.9 27.5 23.5 54.2 37.5 80.2 10.8 19.9 22.1 39.9 35.9 57.8 8.5 11 18.3 21.9 30.8 28.4 4.8 2.5 10 4.3 15.3 5.2 5.3.9 11 1.4 16.3 0 14.4-3.7 24.6-17.1 28.6-30.8 3.2-10.9 3-22.4 1.2-33.5-1.4-8.7-4.3-16.7-8-24.7-8.5-18.3-19.8-35.4-31.3-51.9-11.4-16.3-23.4-32.2-36.1-47.5-2.2-2.7-4.4-5.3-6.7-7.9-1.6-1.8-4.7-1.6-6.4 0C613.6 638.7 613.8 641.4 615.4 643.3L615.4 643.3zM560.2 313.3c-4.8-5.5-11.8-9.4-18.6-11.9-3.8-1.4-8-2.3-12.1-2.2-4.2 0-8.5 1.2-12.4 2.8-8 3.3-15.1 8.6-20.8 15.1-6 6.8-11.1 15-13.1 23.9-2 9.2-.3 18.6 5.2 26.3 5.4 7.5 13 13.2 21.7 16.4 8.9 3.4 18.5 3.1 27.2-.8 8-3.6 14.8-10 20.7-16.4 6-6.4 11.5-14.2 13.3-23 1.9-9.1-2-18.1-7.3-25.4C562.9 316.5 561.6 314.8 560.2 313.3c-1.5-1.8-4.8-1.7-6.4 0-1.8 1.9-1.6 4.5 0 6.4.5.6 1 1.2 1.5 1.8.1.2.3.4.4.5 0 0-.5-.6-.2-.2.3.4.6.8.9 1.2 1.1 1.5 2.1 3.1 3 4.7.5.8.9 1.6 1.3 2.5.1.2.5 1.1.2.4.2.6.4 1.1.6 1.7.3.8.5 1.7.7 2.5.1.5.2.9.3 1.4 0 .1.2 1 .1.4-.1-.6.1.6 0 .6.1.9.1 1.7 0 2.6 0 .3-.2 1.5 0 .6-.1.5-.2 1.1-.3 1.6-.2.9-.5 1.8-.8 2.7-.2.4-.3.9-.5 1.3-.1.2-.2.4-.2.6.3-.8 0 .1-.1.2-.8 1.8-1.7 3.5-2.8 5.2-.5.8-1 1.6-1.6 2.4-.3.4-.6.8-.9 1.2-.3.4 0 0 .1-.1-.2.3-.4.5-.6.8-2.5 3.1-5.2 5.9-8 8.6-1.5 1.4-2.9 2.7-4.5 4-.4.3-.7.6-1.1.9-.2.2-.4.3-.7.5.1-.1.5-.4.1-.1-.8.6-1.7 1.2-2.5 1.8-1.6 1.1-3.4 2.1-5.2 2.9-.2.1-1.4.6-.6.3-.4.2-.9.3-1.3.5-1 .3-1.9.6-2.9.9-.5.1-.9.2-1.4.3-.2 0-.4.1-.6.1.2 0 .9-.1 0 0-1 .1-2 .2-3.1.2-.9 0-1.8 0-2.6-.1-.3 0-.5-.1-.8-.1.1 0 .7.1.2 0-.5-.1-1.1-.2-1.6-.3-2-.4-3.9-1-5.7-1.7-.3-.1-.5-.2-.8-.3.1 0 .6.3.1.1-.4-.2-.9-.4-1.3-.6-.9-.4-1.9-.9-2.8-1.5-.8-.5-1.7-1-2.5-1.5-.4-.3-.8-.5-1.2-.8-.2-.1-1.4-1-.7-.5-1.5-1.2-3-2.5-4.3-3.9-.7-.7-1.3-1.4-1.9-2.1-.3-.4-.6-.7-.9-1.1 0 .1.4.5.1.1-.2-.3-.4-.5-.6-.8-1.1-1.5-2-3.1-2.7-4.8-.4-.8-.1-.2 0 0-.1-.2-.1-.4-.2-.6-.2-.4-.3-.9-.5-1.3-.3-1-.6-2-.7-3-.1-.3-.2-1.5-.1-.6 0-.5-.1-1-.1-1.4-.1-1-.1-2 0-3.1 0-.5.1-1 .1-1.4 0-.2 0-.4.1-.6-.1.9 0 .1 0 0 .2-1 .4-2 .6-3 .2-.9.5-1.9.8-2.8.2-.5.3-.9.5-1.4.1-.2.6-1.6.3-.9 1.6-3.7 3.7-7.2 6.1-10.4.1-.1.6-.8.3-.4-.3.4.1-.1.1-.2.3-.4.6-.7.9-1.1.6-.8 1.3-1.5 1.9-2.2 1.3-1.4 2.6-2.8 4-4.1.7-.6 1.4-1.2 2.1-1.8.4-.3.7-.6 1.1-.9-.1 0-.5.4-.1.1.3-.2.5-.4.8-.6 1.5-1.1 3.1-2.2 4.8-3.1.7-.4 1.5-.8 2.2-1.2.5-.2.9-.4 1.4-.7.1 0 .7-.3.2-.1-.5.2.6-.2.5-.2 1.7-.7 3.4-1.2 5.2-1.6.4-.1.9-.2 1.3-.3.4-.1 1.3-.2.4-.1.9-.1 1.8-.1 2.7-.1.9 0 1.7.1 2.5.1.2 0 .4 0 .5.1-1-.1-.3 0-.1 0 .5.1 1 .2 1.5.3 1.8.4 3.5.9 5.2 1.5.4.2.8.3 1.2.5-.8-.3.2.1.5.2.8.4 1.7.8 2.5 1.2 1.5.8 2.9 1.6 4.3 2.5.6.4 1.3.9 1.9 1.3.7.5-.6-.5.2.2.3.3.6.5.9.8 1 .8 1.9 1.7 2.8 2.7 1.6 1.8 4.8 1.7 6.4 0C562 317.8 561.9 315.2 560.2 313.3z"></path>
    <path d="M615.5 367.4c-4-6.1-10.4-10.8-16.9-13.9-3.7-1.8-7.7-3.4-11.9-4-4.5-.6-9-.3-13.5.5-8.2 1.5-15.5 5.6-21.9 10.9-6.9 5.8-12.7 13.1-15.8 21.6-3.3 8.9-2.3 18.4 2.1 26.7 4.2 7.8 11 14.7 18.9 18.9 8.3 4.5 17.8 5.7 26.9 2.9 8.8-2.7 16.8-8.1 23.9-13.8 6.3-5.1 11.8-11.8 14.2-19.7 2.6-8.6.1-18-3.6-25.8C617.2 370.3 616.4 368.8 615.5 367.4c-1.3-2-4.1-3-6.2-1.6-2 1.3-3 4-1.6 6.2.8 1.3 1.6 2.6 2.3 4 .2.4.4.7.5 1.1.1.2.2.4.3.7 0 0-.3-.7-.1-.2.4.9.7 1.8 1 2.6.6 1.8 1.1 3.6 1.5 5.5.1.5.2.9.2 1.4-.2-1 0 .3 0 .6.1 1 .1 2 .1 2.9 0 .5 0 1-.1 1.6 0 .4-.1 1.1 0 .3-.2 1-.4 2-.7 3-.1.4-.2.7-.4 1.1-.3.8-.1.2 0 0-.1.2-.2.5-.3.7-.4.9-.8 1.7-1.3 2.6-.4.7-.8 1.4-1.2 2.1-.3.4-.5.8-.8 1.2-.2.2-1 1.3-.4.5-1.1 1.4-2.2 2.6-3.5 3.9-1.3 1.2-2.6 2.4-3.9 3.5-.2.1-1.1.9-.7.6.4-.3-.1.1-.1.1-.2.2-.4.3-.6.5-.8.6-1.6 1.1-2.3 1.7-3.4 2.4-6.9 4.6-10.6 6.5-.5.2-.9.4-1.4.7-.3.1-.5.2-.8.4 0 0-.7.3-.3.1.4-.2-.2.1-.3.1-.3.1-.5.2-.8.3-.5.2-1.1.4-1.6.6-1 .3-1.9.6-2.9.8-.5.1-1 .2-1.5.3-.2 0-.4.1-.6.1.8-.2-.1 0-.3 0-1.9.2-3.9.2-5.8 0-.9-.1-.1 0 0 0-.2 0-.4-.1-.6-.1-.5-.1-.9-.2-1.3-.3-1-.2-1.9-.5-2.8-.8-.4-.1-.9-.3-1.3-.5-.2-.1-.5-.2-.7-.3-.1 0-.7-.3-.2-.1.4.2-.7-.3-.9-.4-.5-.2-.9-.5-1.4-.7-1.8-.9-3.4-2-5-3.2-.7-.5.3.3-.4-.3-.4-.3-.8-.7-1.2-1-.7-.6-1.4-1.2-2.1-1.9-.7-.7-1.3-1.3-1.9-2-.4-.4-.7-.8-1.1-1.2-.2-.2-1-1.3-.6-.7-1.2-1.6-2.3-3.3-3.3-5.1-.2-.4-.5-.9-.7-1.3-.1-.2-.2-.4-.3-.6 0-.1-.4-.9-.2-.4.2.4-.1-.2-.1-.2-.1-.3-.2-.5-.3-.8-.2-.5-.4-1-.5-1.6-.3-.9-.5-1.9-.7-2.8 0-.2-.1-.4-.1-.6-.2-.7.1.7 0 0-.1-.5-.1-1.1-.1-1.6 0-.9 0-1.9 0-2.8 0-.5.1-.9.1-1.4 0-.1.1-.7 0-.2-.1.6.1-.5.1-.6.3-1.9.9-3.7 1.6-5.5.1-.2.1-.4.2-.6-.3.8-.1.1 0 0 .2-.4.4-.9.6-1.3.4-.9.9-1.8 1.4-2.7.5-.8 1-1.6 1.5-2.4.3-.4.5-.8.8-1.2.1-.2.2-.3.4-.5.8-1.1-.3.4.2-.2 1.2-1.5 2.5-3 3.9-4.5 1.4-1.4 2.8-2.7 4.3-4 .4-.3.7-.6 1.1-.9.2-.2.4-.3.6-.5-.1 0-.6.4-.1.1.8-.6 1.5-1.1 2.3-1.6 1.5-1 3.1-1.9 4.8-2.8.3-.2.7-.3 1-.5.2-.1.4-.2.7-.3.1 0 .6-.3.1-.1-.5.2.6-.2.8-.3.5-.2.9-.3 1.4-.5 1.7-.6 3.5-1 5.4-1.4.4-.1.7-.1 1.1-.2.9-.1.1 0-.1 0 .3 0 .5-.1.8-.1 1-.1 2-.2 3-.2.9 0 1.8-.1 2.7 0 .4 0 .8 0 1.2.1.2 0 .4 0 .5.1.7 0-1.1-.2.1 0 1.8.3 3.5.7 5.2 1.3.4.1.8.3 1.2.4.2.1 1.3.5.9.3-.5-.2.7.3.8.4.5.2.9.4 1.4.7 1.6.8 3.2 1.7 4.7 2.7.7.5 1.4.9 2.1 1.4.3.2 1.1.8.3.2.4.3.7.6 1.1.9 1.2 1 2.3 2 3.3 3.1.4.5.9 1 1.3 1.5.6.7-.4-.6 0 0 .2.3.4.5.5.8 1.3 2 4 3 6.2 1.6C615.8 372.3 616.8 369.5 615.5 367.4zM518.6 340.3c.6-.7 1.2-1.3 1.9-1.9.3-.3.6-.5.9-.8.2-.2 1.2-1 .3-.3.7-.6 1.5-1 2.3-1.5.3-.1.6-.4.9-.4-.6.2-.6.3-.2.1.2-.1.4-.1.6-.2.2-.1 1-.4 1.3-.3-.6.1-.7.1-.4.1.2 0 .3 0 .5 0 .1 0 1.3-.1 1.3 0-.7-.1-.8-.1-.3 0 .2 0 .4.1.6.1 0 0 .8.2.8.3-.6-.3-.7-.3-.3-.1.2.1.3.2.5.3.2.1.3.2.5.3.4.3.3.2-.2-.2.2 0 .6.5.8.7.3.2.5.5.7.8.3.4.3.3-.2-.2.1.2.2.3.3.5.2.3.4.6.5.9.5 1-.2-.7.1.2.1.4.2.8.3 1.1 0 .2.1.4.1.6-.1-.7-.1-.8-.1-.3 0 .3 0 .6 0 1 0 .2 0 .4 0 .6-.1.5 0 .4 0-.3.2.4-.4 1.7-.6 2.1-.2.5-.1.4.1-.2-.1.2-.2.4-.3.6-.2.4-.4.8-.6 1.1-.2.2-.3.6-.5.8.9-.8-.2.1-.3.3-.3.3-.6.6-.9.9-.4.3-.3.3.2-.1-.2.1-.3.2-.5.4-1.9 1.3-3 4-1.6 6.2 1.2 1.9 4.1 3 6.2 1.6 6-4.1 9.9-12.1 7.1-19.3-1.3-3.4-3.7-6.4-6.9-8.1-3.4-1.8-7.5-2.2-11.2-.8-3.9 1.4-7.2 4.1-10 7.2-1.6 1.7-1.8 4.7 0 6.4C514 341.9 516.9 342.2 518.6 340.3L518.6 340.3z"></path>
    <path d="M572.4 389.7c.2-.2.3-.4.5-.6-.3.4-.3.4 0 0 .2-.3.5-.6.7-.9.5-.6 1.1-1.2 1.6-1.8.3-.3.6-.6 1-.9.7-.6-.6.3.3-.2.3-.2.6-.4 1-.6.2-.1.4-.2.7-.3-.5.2-.5.2 0 0 .4-.1.7-.2 1.1-.3 1-.3-.8-.1.3 0 .2 0 .5 0 .7 0-.5-.1-.6-.1-.3 0 .3.1 1 .1 1.2.3-.1-.1-.3-.1-.4-.2.2.1.4.2.6.3.3.2.6.4.9.6.2.1.4.3.6.4-.4-.3-.5-.4-.1 0 .3.2.5.5.8.7.2.2.5.5.7.8.2.2.3.4.5.5-.3-.4-.4-.5-.2-.2.1.2 1.3 1.7 1.1 1.9-.2-.6-.2-.6-.1-.1 0 .1.1.2.1.3.1.4.3.9.3 1.3 0-.2-.1-.4-.1-.5 0 .2 0 .4 0 .7.1 1 .3-.8 0 .1 0 .2-.5 1.4-.2.8.2-.5-.4.7-.5.8-.2.3-.4.6-.6.9-.6.9.4-.5-.2.3-1.2 1.5-2.5 3.1-3.7 4.7-1.5 1.8-1.9 4.6 0 6.4 1.6 1.5 4.8 2 6.4 0 1.2-1.5 2.3-2.9 3.5-4.4 1.1-1.4 2.3-2.8 3.1-4.5 1.8-3.9 1.5-8-.4-11.8-1.6-3-4.4-5.8-7.4-7.4-3.9-2.1-8.1-2-12.1-.2-3.9 1.8-6.5 5.3-9 8.5-1.4 1.9-.4 5.1 1.6 6.2C568.6 392.5 570.9 391.7 572.4 389.7L572.4 389.7zM379 515.8c-22.4 21.7-44.8 43.5-67.3 65.2-22.4 21.7-44.8 43.5-67.3 65.2-11.1 10.8-22.3 21.6-33.4 32.4-10.4 10.1-21.3 20-31.1 30.7-9.4 10.3-18.3 22.2-21.6 36-3.1 12.8-.6 27.6 10.1 36.3 5.1 4.1 12 6.8 18.6 6 6.6-.8 12.6-3.9 18.1-7.5 10.6-7 20.1-15.9 29.1-24.8 16.3-16.1 31.3-33.4 46.1-51 19.5-23.2 38.6-46.6 58.2-69.7 19.7-23.2 39.6-46.3 60-69 4.9-5.5 9.9-10.9 14.8-16.4 1.6-1.7 1.8-4.7 0-6.4-1.7-1.6-4.7-1.9-6.4 0-20.3 22.2-40.2 44.9-59.8 67.7-19.5 22.7-38.7 45.7-57.8 68.8-16.4 19.8-32.8 39.6-50.5 58.3-10.2 10.8-20.8 21.3-32.5 30.6 0 0 1-.8.5-.4-.1.1-.3.2-.4.3-.2.2-.5.3-.7.5-.5.4-1 .8-1.5 1.1-.9.7-1.8 1.3-2.7 1.9-1.6 1.1-3.3 2.2-5 3.1-1.4.8-2.9 1.5-4.3 2.2-.8.3.3-.1.5-.2-.2.1-.4.1-.5.2-.3.1-.6.2-.9.4-.6.2-1.2.4-1.8.6-1 .3-2.1.5-3.2.7-.7.1 1.5-.2.8-.1-.1 0-.2 0-.3 0-.3 0-.5 0-.8.1-.4 0-.8 0-1.3 0-.4 0-.8 0-1.2-.1-.2 0-.4 0-.5-.1-.9-.1 1.5.2.6.1-.7-.1-1.4-.2-2-.4-.3-.1-.6-.2-.9-.2-.4-.1-.8-.2-1.2-.4-.4-.1-.7-.3-1.1-.4 1 .4-.2-.1-.3-.2-1.2-.6-2.4-1.3-3.5-2.2.8.6-.1-.1-.3-.2-.2-.2-.4-.3-.6-.5-.5-.5-1-1-1.5-1.5-.5-.5-.9-1-1.4-1.6.6.7 0 0-.1-.2-.3-.4-.5-.7-.7-1.1-.7-1.1-1.4-2.3-1.9-3.5-.1-.2-.4-1-.1-.2-.1-.4-.3-.7-.4-1.1-.3-.7-.5-1.5-.7-2.2-.2-.6-.3-1.2-.4-1.9-.1-.4-.1-.7-.2-1.1-.2-.9-.1-.4 0-.2-.2-1.8-.3-3.7-.2-5.5 0-.8.1-1.5.2-2.3.1-1.5-.2.8.1-.6 0-.3.1-.6.2-.9.3-1.8.8-3.7 1.3-5.4.5-1.5 1-3 1.6-4.4.6-1.4-.3.7.3-.7.2-.4.3-.7.5-1.1.4-.9.9-1.8 1.3-2.7 1.5-2.9 3.2-5.7 5.1-8.4 2-2.9 3.3-4.5 5.5-7.3 2.2-2.6 4.4-5.1 6.8-7.5 4.8-5 9.8-9.8 14.8-14.7 11.1-10.7 22.2-21.5 33.3-32.2 22-21.4 44.1-42.7 66.1-64.1 22-21.4 44.1-42.7 66.1-64.1 5.4-5.3 10.8-10.5 16.2-15.8 1.7-1.6 1.8-4.7 0-6.4C383.6 514.1 380.8 514.1 379 515.8L379 515.8z"></path>
    <path d="M339.2 561.2c10.1 10.5 21.1 20.2 32.9 28.8 1.9 1.4 5.1.4 6.2-1.6 1.2-2.3.4-4.7-1.6-6.2-1.5-1.1-2.9-2.2-4.4-3.3-.7-.5.2.2-.5-.4-.4-.3-.7-.6-1.1-.8-.6-.5-1.3-1-1.9-1.5-2.7-2.2-5.4-4.4-8-6.8-5.3-4.7-10.3-9.5-15.2-14.6-1.6-1.7-4.7-1.8-6.4 0C337.5 556.7 337.4 559.4 339.2 561.2L339.2 561.2zM287.8 612.2c11.7 11.5 23.4 23.1 36.8 32.7 1.9 1.4 5.1.4 6.2-1.6 1.2-2.3.4-4.7-1.6-6.2-6.1-4.3-11.9-9.3-17.8-14.7-5.8-5.4-11.5-11-17.1-16.6-1.7-1.7-4.7-1.8-6.4 0C286.1 607.6 286 610.4 287.8 612.2L287.8 612.2zM235.8 661.7c9.6 11.4 21 21.2 32.4 30.7 2.8 2.3 5.7 4.7 8.5 7 1.8 1.5 4.6 1.9 6.4 0 1.5-1.7 1.9-4.8 0-6.4-11-9.1-22.2-18.1-32.3-28.2-3-3-5.9-6.2-8.7-9.5-1.5-1.8-4.8-1.7-6.4 0C234.1 657.3 234.2 659.8 235.8 661.7L235.8 661.7zM183.8 709.9c4.3 6.7 10.5 12.2 16 17.9 5.6 5.8 11 11.8 16.6 17.5 3.3 3.3 6.6 6.7 9.9 10 1.6 1.7 4.7 1.8 6.4 0 1.7-1.8 1.7-4.5 0-6.4-5.4-5.7-11-11.1-16.5-16.8-2.9-3-5.7-6.2-8.6-9.2-2.8-3-5.7-5.8-8.5-8.8-1.5-1.6-3-3.2-4.5-4.9-.7-.8-1.3-1.5-1.9-2.3.6.8-.1-.1-.3-.4-.3-.4-.6-.8-.8-1.2-1.3-2-4-3-6.2-1.6C183.4 705 182.4 707.8 183.8 709.9L183.8 709.9z"></path>
  </g>
  <path id="outline" d="M864.9,665.6c-92-72.1-198.6-138-320.9-203.7c4.3-6.7,7.3-13.7,8.1-20.9c23.9,22.3,62.7,1.5,73-25.1
		c7.4-29.5-25.2-55.6-52.7-46.5c13.1-27.2-23.8-61.9-51.7-49.2c-27,10.6-49,49.9-22.5,72.3c-6.8,1.5-13.2,5.1-19.3,9.8
		c-51-73.6-162.3-272.7-236.9-303.5c-66.3-14.5-90.5,64.1-65.6,114c12.1,27.9,28.3,52.9,47.4,75.5C52.2,158.7-37,398.1,418.3,465.8
		c-18,18.2-44.1,44.9-36.1,68.8c-64.9,62.9-129.7,125.7-194.5,188.6c-11.4,11.7-21.3,24.5-25.6,40.5c-8.2,29.4,20.5,55.6,46.8,34.8
		c79.9-65.9,135-156.3,207.5-230c23.5,2.6,47.9-21.4,69-44C526,608.4,585,880,677.8,851.5c63.3-19.5,19.6-103.3-9-140.3
		c58.3,52.5,123,85.3,179.5,60.4C895.5,751.6,899.5,700.3,864.9,665.6z M530,395.2C530.3,395.2,530.7,395.1,530,395.2L530,395.2z
		 M533.5,403.2c1.9-0.4,3.8-0.9,5.6-1.6c-0.6,1.8-1,3.6-1.3,5.4C536.7,405.8,533.8,403.4,533.5,403.2z M573.9,441.8
		C573.3,441.7,573.7,441.7,573.9,441.8L573.9,441.8z M605.2,384.1c9.3,7.6,14.2,18.5,10.8,30.9c0-0.1,0.1-0.1,0.1-0.2
		c-7.4,14.8-25.6,27.7-42.1,27c-17.3-3.2-33.4-21.6-25.7-39.4C557.4,381.3,586.1,367.2,605.2,384.1z M496.7,375.4
		C496.5,374.9,496.6,375.2,496.7,375.4L496.7,375.4z M496.8,375.5c-0.6-1.6-1.1-2.1-1.5-5.5c-1.4-32,41.7-60.5,64.3-29.7
		c0,0,0,0-0.1-0.1c18.4,20.3-5.1,43.5-23.2,53.2C521.6,399.7,503.3,389.4,496.8,375.5z M188.8,125.4c47-54.4,100.6,16.3,128.2,55.8
		c55.4,73,107.6,148.6,155.2,226.9c-8.4,7.9-16.2,17.7-24.4,26.2C354.8,392.6,121.6,248.6,188.8,125.4z M213.3,402.3
		C166.8,388.4,66.2,326.7,102,269.4c36.5-41.2,122.5,31.1,157,55.1c53.5,49.1,118.8,83.8,182.1,117c-5.3,5.6-10.5,11.3-15.8,16.9
		C354.7,439.2,281.6,429.2,213.3,402.3z M324,660.3c-13.4,16.2-26.5,32.6-39.9,48.7c-12.4-10.2-24.8-20.4-35.5-32.3
		c15.1-14.7,30.3-29.3,45.4-44C300.5,638.8,314.2,653.9,324,660.3z M196.1,795.4c-12.8,6.8-25.3-6.3-26.1-17.1
		c-1.5-15.7,8.1-31.1,21.1-45.6c11.2,13.5,24.3,25.5,36.4,38.3C217.8,779.9,208.3,789.8,196.1,795.4z M233.9,764.7
		c-12.4-12.7-24.9-25.3-36.8-38.6c15.7-15.9,32.9-30.1,45-43.2c7.1,7.7,25.2,25.9,36.2,33C264.2,732.8,249.6,749.2,233.9,764.7z
		 M330.1,653.1c-13.3-9.7-17.9-14.8-29.6-26.7c15.1-14.7,30.3-29.3,45.4-44c5.8,5.7,17,17.3,25.5,23
		C357.6,621.3,343.6,637,330.1,653.1z M377.4,598.4c-8.7-6.5-17.4-14.4-25.2-22.2c12-11.4,20.5-20.5,33.6-32.1
		c4.2,7.8,11.3,15,21.4,21C397.2,576.1,387.3,587.2,377.4,598.4z M446.8,548.4c-25.5,19.2-38.4,13.3-55-11.8
		c-5.4-13.5,0.7-27.2,9.1-38.1c27.7-30.6,55.4-61.7,85.1-90.4c21.8-20.7,59.2,6.5,57.5,33.2c-3,15.6-15.1,26.6-26.4,38.1
		C493.5,502.3,471.6,527,446.8,548.4z M699.4,810.5C637.2,960.4,508.9,562.2,492,517.3c6.3-6.8,12.3-13.2,17.8-18.4
		c19.6,41,59.3,104.1,108,160.1C647.3,700.6,704.7,757.3,699.4,810.5z M860.3,753.7c-138.2,77-287.5-157.6-343.5-261.1
		c7.5-7.1,15.9-15.3,22.7-24.1c89,48,174,102.9,258.6,158.3C839.9,650.3,914.8,705.2,860.3,753.7z M522.3,358.6
		c8.2-11.5,19.2-1.3,10.5,6.6c-5.3,2.7-1.2,11.1,4.2,8.1c9.8-6,11-21.8,0.2-27.4c-6.5-5.4-27.1,4.3-21.2,12.7
		C517.7,360.2,520.7,360.5,522.3,358.6z M576.1,408c4-6.3,10.2-8.1,13.4,0.5c-0.1,5.4-10,9.1-5.3,14.7c7.3,6.3,18.2-14.8,12.5-20.6
		c-6.5-12.7-21.9-10.7-28.4,0.9C565.3,408.4,573.1,412.9,576.1,408z"></path>
  <g id="flat" display="none">
    <path fill="#dfd3c4" d="M262.3 322.5c-41.1-26.7-108.1-90.5-158.1-60.6-26.6 22.7-11.8 62.6 9.4 84.1 82.8 84.6 205.5 86.7 317.4 119.9l35.7-25L262.3 322.5zM702 783.4c-7.4-32.6-57.8-98.7-79.8-123.8L515.8 471.3l-30.7 44.1c40.6 89.3 93.2 321 187.2 333.5C685.9 848.6 712.4 829.4 702 783.4z"></path>
    <path fill="#b97460" d="M389.2,535.3C318.9,608.2,235,674.6,171.4,753c-9.7,15.9-8.9,42.6,11.5,48.9
				c32.9,18,185.9-194.6,233.6-238.6L389.2,535.3z"></path>
    <path fill="#65343e" d="M343.1 580c9.9 10.3 20.5 20 30.2 30.5 1.6 1.7 4.8 1.7 6.4 0 7.6-5-26-30.4-30.2-36.9C345.4 569.5 339 575.9 343.1 580L343.1 580zM290.5 631c6.6 4.8 37.4 42.6 43.3 32.2 1.2-2.3.4-4.7-1.6-6.2-12.9-9.3-23.9-21.3-35.3-32.4C292.8 620.5 286.4 626.9 290.5 631L290.5 631zM238.4 681.6c12.3 14.6 27.5 26.4 42.1 38.5 4.1 4.1 10.5-2.3 6.4-6.4-11.3-9.4-22.9-18.5-33.3-28.9-3.1-3.1-6-6.2-8.8-9.6C240.7 671.1 234.3 677.4 238.4 681.6L238.4 681.6zM188.1 732c13.4 14.8 27.6 28.9 41.8 43 4.1 4.1 10.5-2.2 6.4-6.4-14.2-14-28.4-28.2-41.8-43C190.4 721.5 184 727.9 188.1 732L188.1 732z"></path>
    <path fill="#f0ece3" d="M873.8 685.9c-8.5-14.3-25.7-30.5-39.6-39.6-99.9-65.3-194.4-127.7-299.5-184.2l-27.5 29.5c50.5 99.8 223.1 348.9 353.4 268.7C886.4 741.4 890.2 713.5 873.8 685.9zM298.6 151.3C179.9-4.5 30.1 248.7 453.9 444.3l28.4-31.2C428.8 324.8 362 232.7 298.6 151.3z"></path>
    <path fill="#9b5044" d="M531.4,408.5c-23.9-21.7-47.4-7.9-63.5,12c-19.5,20.9-39,41.7-58.4,62.6c-22.9,21.8-37.2,52.5-6.3,74.7
				c21.5,21.4,49.1-5.8,65.2-21.9c17.9-18,35.9-36,53.8-54C545.3,460.5,561.1,434.5,531.4,408.5z"></path>
    <path fill="#dfd3c4" d="M562.7,334.9c-5.2-6-19.5-14.7-31.2-12.5c-28.5,5.4-55,47.4-26.2,68.4c15.8,13.9,37.1,10.7,50.6-4.5
				C573.1,371.2,579.7,352.5,562.7,334.9z"></path>
    <path fill="#dfd3c4" d="M616.2,387.2c-30.5-41.7-97,8.6-64.6,45.1c13.2,16.4,34.8,16.7,50.7,4C621.7,424.8,628.8,405.8,616.2,387.2
				z"></path>
    <path fill="#57414e" d="M523.3 358.8c.9-1 1.8-1.9 2.8-2.8.2-.2 1.2-1 .3-.3.9-.7 2-1.5 3.1-1.9-1.5.6 1.4-.6 1.7-.4-1.8.2 1.2-.1 1.4.1-1.7-.3.9.2 1.1.4-1.9-1 2.3 1.5.6.3.4 0 2.4 2.6 1.3 1.3 1.1 1.7.9 1.4 1.4 3.3-.1-2.3-.1 3.4 0 1.1.3.2-1.2 3.6-.5 2-.4.9-.9 1.7-1.5 2.5 1.5-1.4-2.7 2.5-1.1 1.1-5.6 2.6-1.4 11.2 4 8.1 9.8-6 11-21.8.2-27.4-6.5-5.4-27.1 4.3-21.2 12.7C518.6 360.4 521.6 360.6 523.3 358.8L523.3 358.8zM577.1 408.1c.2-.2.3-.4.5-.6.6-.8 3.2-4 5.2-4.7-1.1.4.7-.2 1-.3 1-.3-.8-.1.3 0 .2 0 .5 0 .7 0-1.4-.2.7.1.9.3-.1-.1-.3-.1-.4-.2.8.3 1.5.8 2.1 1.3-.9-.7 1.6 1.5 1.9 2-.3-.4-.4-.5-.2-.2.1.2 1.3 1.7 1.1 1.9-.5-1.4.5 1.2.4 1.5 0-.2-.1-.4-.1-.5 0 .2 0 .4 0 .7.1 1 .3-.8 0 .1-.2.9-1.3 2.6-1.6 2.9-2.2 3.1-7.5 7.1-3.7 11 1.6 1.5 4.8 2 6.4 0 5-5.7 10.8-12.9 6.2-20.6-3.5-6.9-12.1-11.4-19.4-7.6-3.9 1.8-6.5 5.3-9 8.5C566.2 408.5 574 413.1 577.1 408.1L577.1 408.1z"></path>
  </g>
  <g id="colored_x5F_line" display="none">
    <path fill="#dfd3c4" d="M255.2 327.3c-41.1-26.7-108.1-90.5-158.1-60.6-26.6 22.7-11.8 62.6 9.4 84.1 82.8 84.6 205.5 86.7 317.4 119.9l35.7-25L255.2 327.3zM694.9 788.2c-7.4-32.6-57.8-98.7-79.8-123.8L508.7 476 478 520.2c40.6 89.3 93.2 321 187.2 333.5C678.8 853.4 705.3 834.2 694.9 788.2z"></path>
    <path fill="#b97460" d="M382,540C311.8,613,227.8,679.4,164.3,757.8c-9.7,15.9-8.9,42.6,11.5,48.9
					c32.9,18,185.9-194.6,233.6-238.6L382,540z"></path>
    <path fill="#f0ece3" d="M866.7 690.7c-8.5-14.3-25.7-30.5-39.6-39.6-99.9-65.3-194.4-127.7-299.5-184.2l-27.5 29.5c50.5 99.8 223.1 348.9 353.4 268.7C879.3 746.1 883 718.2 866.7 690.7zM291.4 156.1C172.8.3 23 253.4 446.8 449.1l28.4-31.2C421.7 329.6 354.9 237.4 291.4 156.1z"></path>
    <path fill="#9b5044" d="M524.2,413.2c-23.9-21.7-47.4-7.9-63.5,12c-24.8,35.5-121.1,94.9-64.8,137.3c34,33.5,92.4-55.9,119-75.8
					C538.2,465.3,553.9,439.3,524.2,413.2z"></path>
    <path fill="#dfd3c4" d="M555.6,339.7c-31.2-39-97.5,24-57.5,56C529,425.7,588.3,370.6,555.6,339.7z"></path>
    <path fill="#dfd3c4" d="M609.1,391.9c-30.5-41.7-97,8.6-64.6,45.1c13.2,16.4,34.8,16.7,50.7,4
					C614.5,429.6,621.7,410.6,609.1,391.9z"></path>
    <path fill="#3d3a56" d="M531,350.8c-7.3-5-27.1,4.3-21.2,12.7c1.7,1.6,4.7,1.9,6.4,0c8.2-10.7,17.7-3,11.7,5.5
				c1-0.9-0.6,0.6-1.3,1.2c-5.3,2.7-1.2,11.1,4.2,8.1C540.7,372.2,541,357.8,531,350.8z"></path>
    <path fill="#3d3a56" d="M857.4,671.1c-91.9-74.3-198.6-138-320.9-203.7c4.3-6.7,7.3-13.7,8.1-20.9c23.9,22.3,62.7,1.5,73-25.1
			c7.4-29.5-25.2-55.6-52.7-46.5c13.1-27.2-23.8-61.9-51.7-49.2c-27,10.6-49,49.9-22.5,72.3c-6.8,1.5-13.2,5.1-19.3,9.8
			c-51-73.6-162.3-272.7-236.9-303.5c-66.3-14.5-90.5,64.1-65.6,114c12.1,27.9,28.3,52.9,47.4,75.5
			C44.7,164.2-44.6,403.5,410.7,471.3c-18,18.2-44.1,44.9-36.1,68.8C309.7,603,244.9,665.8,180.1,728.7
			c-11.4,11.7-21.3,24.5-25.6,40.5c-8.2,29.4,20.5,55.6,46.8,34.8c79.9-65.9,135-156.3,207.5-230c23.5,2.6,47.9-21.4,69-44
			c40.7,83.9,95.9,339.3,192.5,327c62.6-8,19.6-103.3-9-140.3c58.3,52.5,123,85.3,179.5,60.4C888,757,897.7,709.3,857.4,671.1z
			 M522.5,400.6C522.7,400.6,523.1,400.6,522.5,400.6L522.5,400.6z M526.7,409.3c-0.3-0.2-0.5-0.5-0.8-0.7c1.9-0.4,3.8-0.9,5.6-1.6
			c-0.6,1.8-1,3.6-1.3,5.4C529.1,411.2,528,410.1,526.7,409.3z M566.4,447.2C565.7,447.2,566.1,447.2,566.4,447.2L566.4,447.2z
			 M597.6,389.5c9.3,7.6,14.2,18.5,10.8,30.9c0-0.1,0.1-0.1,0.1-0.2c-7.4,14.8-25.6,27.7-42.1,27c-17.3-3.2-33.4-21.6-25.7-39.4
			C549.8,386.8,578.6,372.7,597.6,389.5z M489.2,380.8C488.9,380.3,489.1,380.6,489.2,380.8L489.2,380.8z M489.2,381
			c-0.6-1.6-1.1-3.2-1.4-4.9c-0.1-0.3-0.2-1.5-0.1-0.6c-1.4-32,41.7-60.5,64.3-29.7c0,0,0,0-0.1-0.1c18.4,20.3-5.1,43.5-23.2,53.2
			C514,405.2,495.8,394.8,489.2,381z M181.2,130.9c47-54.4,100.6,16.3,128.2,55.8c55.4,73,107.6,148.6,155.2,226.9
			c-8.4,7.9-16.2,17.7-24.4,26.2C347.2,398,114,254,181.2,130.9z M205.7,407.8c-46.5-13.9-147.1-75.6-111.3-132.9
			c36.5-41.2,122.5,31.1,157,55.1c53.5,49.1,118.8,83.8,182.1,117c-5.3,5.6-10.5,11.3-15.8,16.9C347.2,444.6,274,434.6,205.7,407.8z
			 M316.5,665.8c-13.4,16.2-26.5,32.6-39.9,48.7c-12.4-10.2-24.8-20.4-35.5-32.3c15.1-14.7,30.3-29.3,45.4-44
			C292.9,644.3,306.6,659.3,316.5,665.8z M188.5,800.8c-12.8,6.8-25.3-6.3-26.1-17.1c-1.5-15.7,8.1-31.1,21.1-45.6
			c11.2,13.5,24.3,25.5,36.4,38.3C210.2,785.3,200.7,795.2,188.5,800.8z M226.4,770.1c-12.4-12.7-24.9-25.3-36.8-38.6
			c15.7-15.9,32.9-30.1,45-43.2c7.1,7.7,25.2,25.9,36.2,33C256.6,738.2,242,754.7,226.4,770.1z M322.5,658.6
			c-13.3-9.7-17.9-14.8-29.6-26.7c15.1-14.7,30.3-29.3,45.4-44c5.8,5.7,17,17.3,25.5,23C350,626.7,336.1,642.4,322.5,658.6z
			 M369.8,603.9c-8.7-6.5-17.4-14.4-25.2-22.2c12-11.4,20.5-20.5,33.6-32.1c4.2,7.8,11.3,15,21.4,21
			C389.6,581.6,379.7,592.7,369.8,603.9z M439.2,553.9c-25.5,19.2-38.4,13.3-55-11.8c-5.4-13.5,0.7-27.2,9.1-38.1
			c27.7-30.6,55.4-61.7,85.1-90.4c21.8-20.7,59.2,6.5,57.5,33.2c-3,15.6-15.1,26.6-26.4,38.1C485.9,507.7,464,532.4,439.2,553.9z
			 M691.9,815.9c-62.2,149.9-190.6-248.3-207.4-293.2c6.3-6.8,12.3-13.2,17.8-18.4c19.6,41,59.3,104.1,108,160.1
			C639.7,706,697.1,762.8,691.9,815.9z M852.7,759.2c-138.2,77-287.5-157.6-343.5-261.1c7.5-7.1,15.9-15.3,22.7-24.1
			C587,514,957.1,683.3,852.7,759.2z"></path>
    <path fill="#3d3a56" d="M590.6,407.4c-6.5-12.7-21.9-10.7-28.4,0.9c-3,4.9,4.8,9.5,7.8,4.5c1.7-2.2,5-6.8,8.4-5.3
			c-0.1,0-0.1,0-0.2-0.1c7.9,3.7,4.9,8.6,0.3,13.6c-4.4,4.4,1.2,11.2,6,6.9C589.5,422.4,595.2,415.1,590.6,407.4z"></path>
  </g>
</svg>
